<svg version="1.1" xmlns="http://www.w3.org/2000/svg" style="display: block;" viewBox="0 0 2048 2048" width="1000" height="1000">
<path transform="translate(0,0)" fill="rgb(254,254,254)" d="M 968.961 38.3165 C 1013.19 36.4132 1061.9 37.5901 1106.5 38.0869 C 1112.3 47.3177 1115.74 59.1454 1119.73 69.3267 C 1128.65 91.9456 1137.35 114.65 1145.82 137.436 L 1233.14 363.315 L 1609.48 1339.38 L 1729.85 1651.47 L 1774.32 1766.82 C 1783.57 1790.67 1792.38 1814.99 1802.91 1838.3 C 1812.63 1859.82 1825.37 1884.07 1841.72 1901.34 C 1883.68 1945.62 1925.59 1941.12 1981.45 1942.85 C 1981.29 1951.9 1981.86 1960.9 1981.5 1969.98 C 1941.76 1970.72 1901.87 1970.02 1862.12 1970.02 L 1628.42 1970.01 L 1375.7 1970.05 C 1329.45 1970.06 1283.11 1970.61 1236.87 1969.86 L 1236.84 1943.09 C 1301.45 1938.68 1368.07 1948.66 1430.49 1925.46 C 1454.14 1916.67 1473.48 1902.63 1484.09 1879.11 C 1514.87 1810.88 1462.33 1692.78 1437.28 1626.23 L 1391.25 1502.74 C 1387.36 1490.8 1382.41 1478.96 1378.08 1467.15 L 1343.79 1375.02 L 1320.29 1311.77 C 1315.17 1297.83 1310.56 1283.4 1304.28 1269.94 C 1243.69 1268.32 1182.76 1269.62 1122.13 1269.62 L 839.181 1269.85 C 838.547 1260.56 838.795 1251.3 838.966 1242.01 L 1293.04 1242.2 C 1286.42 1218.96 1276.16 1196.1 1267.8 1173.39 L 1208.03 1013.87 L 1085.89 687.451 C 1051.89 599.133 1019.75 510.115 989.467 420.455 L 950.278 299.21 C 942.868 275.689 934.254 252.052 930.031 227.716 C 918.098 255.073 909.814 284.851 900.499 313.222 L 852.469 459.374 C 811.961 579.921 770.218 700.05 727.246 819.741 C 717.443 819.908 707.638 819.9 697.835 819.718 C 700.804 800.031 710.437 779.337 717.023 760.415 L 756.134 648.063 L 906.556 216.341 L 950.871 89.0495 C 955.191 76.5456 962.689 48.4432 968.961 38.3165 z"/>
<path transform="translate(0,0)" fill="rgb(254,254,254)" d="M 402.93 1716.56 C 406.26 1716.23 408.984 1716.07 412.28 1716.71 C 414.387 1719.05 414.036 1721.16 413.638 1724.2 C 411.944 1737.14 406.94 1750.16 403.979 1762.91 C 400.576 1777.57 399.292 1795.02 399.157 1810 C 398.894 1839.12 407.161 1867.57 427.983 1888.66 C 487.22 1948.67 651 1942.47 733.043 1942.5 C 734.469 1951.67 734.167 1960.89 733.843 1970.14 C 628.792 1968.79 523.57 1970.02 418.5 1970.01 L 73.7217 1970.12 C 73.0813 1961.02 73.4693 1951.83 73.6077 1942.72 C 128.572 1941.25 187.506 1948.47 239.587 1926.71 C 301.548 1900.82 335.858 1840.76 360.053 1781.11 C 368.59 1760.07 375.475 1738.36 384.093 1717.36 C 390.352 1716.56 396.631 1716.62 402.93 1716.56 z"/>
<path transform="translate(0,0)" fill="rgb(254,254,254)" d="M 477.035 826.765 C 513.747 827.625 579.186 973.236 593.141 1005.75 C 601.883 1026.13 609.665 1047.03 617.367 1067.82 C 623.543 1084.49 625.776 1103.44 633.106 1119.41 C 638.237 1130.58 648.937 1143.21 657.786 1151.68 C 649.777 1130.39 641.6 1108.37 637.222 1086 C 635.685 1078.14 633.193 1061.83 638.688 1055.4 C 640.127 1053.72 642.249 1052.82 644.43 1052.68 C 654.581 1052.03 664.138 1062.37 671.168 1068.58 C 672.849 1049.29 675.782 1029.6 675.518 1010.24 C 675.398 1001.45 673.709 993.015 673.257 984.303 C 673.088 981.058 673.044 978.911 675.23 976.427 L 678.127 976.644 C 681.399 979.422 682.347 985.373 683.088 989.457 C 687.373 1013.07 683.635 1036.96 680.538 1060.45 C 679.722 1066.65 678.11 1073.14 677.888 1079.36 C 677.575 1088.11 682.947 1097.91 684.079 1106.95 C 684.847 1113.07 685.422 1123.57 680.776 1128.3 C 678.049 1131.08 674.626 1132 670.827 1131.79 C 668.164 1131.64 665.781 1130.58 664.224 1128.33 C 657.707 1118.93 665.977 1095.99 666.573 1085.21 C 666.865 1079.92 661.023 1072.95 657.499 1069.18 C 654.361 1065.83 651.091 1062.63 646.282 1062.54 C 631.168 1074.79 675.314 1156.45 672.237 1168.84 C 670.514 1170.48 670.096 1170.77 667.527 1170.61 C 657.188 1169.96 643.684 1149.55 638.278 1141.76 C 642.275 1161.22 644.225 1182.42 645.019 1202.29 C 645.54 1215.32 644.968 1235.11 635.255 1244.94 C 632.411 1247.81 628.848 1249.32 624.804 1249.33 C 615.305 1249.34 607.347 1241.9 600.905 1235.79 C 604.792 1249.63 620.188 1286.41 614.811 1299.29 C 613.772 1301.77 612.292 1303.51 609.656 1304.39 C 604.042 1306.26 597.968 1301.83 593.299 1299.21 C 599.234 1326 605.059 1353.22 607.646 1380.56 C 608.948 1394.32 611.341 1415.76 601.287 1427.03 C 598.629 1430.01 595.062 1431.57 591.075 1431.57 C 576.094 1431.58 560.561 1415.03 550.55 1405.27 C 556.361 1456.43 563.204 1525.85 544.465 1574.61 C 541.125 1583.3 535.735 1591.24 526.862 1594.93 C 517.674 1598.75 506.933 1597.09 498.102 1593.09 C 458.197 1575.01 419.766 1503.68 405.567 1463.55 C 393.959 1430.74 383.263 1385 399.815 1351.94 C 403.615 1344.35 409.893 1337.39 418.247 1334.89 C 425.243 1332.79 431.945 1334.51 438.056 1338.23 C 463.769 1353.87 480.768 1393.44 487.272 1421.41 C 488.439 1426.42 490.761 1434.77 487.907 1439.32 L 485.683 1439.72 C 478.513 1435.7 478.079 1422.49 475.928 1415.19 C 468.824 1391.12 454.68 1357.8 431.303 1345.14 C 430.968 1344.96 430.629 1344.79 430.293 1344.61 C 425.692 1343.54 421.198 1343.22 416.873 1345.47 C 410.218 1348.94 406.889 1356.7 404.718 1363.49 C 390.975 1406.46 410.859 1461.71 431.133 1500.13 C 445.289 1526.95 477.901 1578.93 507.485 1587.2 C 513.723 1588.95 519.469 1588.26 525.018 1584.88 C 534.762 1578.94 537.855 1567.17 540.309 1556.78 C 549.375 1518.39 551.297 1426.56 536.62 1391.61 C 532.347 1381.44 524.143 1372.12 517.865 1363.08 C 509.612 1350.98 501.613 1338.7 493.875 1326.27 C 467.889 1284.23 376.681 1118.36 389.099 1071.56 C 389.975 1068.26 391.278 1065.95 394.37 1064.24 C 397.423 1062.56 401.579 1062.76 404.819 1063.69 C 442.773 1074.6 516.583 1284.17 529.898 1324.06 C 535.56 1341.01 543.152 1377.4 550.374 1390.09 C 555.777 1399.58 576.729 1419.54 587.171 1421.97 C 589.233 1422.45 591.543 1422.26 593.312 1421.07 C 610.415 1409.52 588.078 1318.69 582.96 1298.9 C 580.411 1289.05 570.798 1262.67 572.6 1254.41 L 574.418 1253.44 C 585.9 1262.42 592.134 1290.77 604.796 1294.91 L 606.256 1293.56 C 609.471 1266.9 580.727 1229.78 581.43 1205.52 C 581.509 1202.78 581.892 1201.63 583.798 1199.71 C 597.376 1199.91 604.969 1237.57 621.923 1239.91 C 624.585 1240.27 626.704 1239.31 628.696 1237.63 C 643.493 1225.12 631.468 1142.39 623.993 1125.86 C 617.204 1110.85 596.95 1084.14 587.298 1068.73 C 562.449 1029.05 468.96 874.997 471.486 837.196 C 471.819 832.218 473.313 829.973 477.035 826.765 z M 529.846 1365.41 L 530.817 1364.52 C 530.617 1349.35 519.336 1321.29 513.974 1305.91 C 491.748 1242.16 467.333 1179.17 435.792 1119.37 C 427.879 1104.37 419.792 1087.16 407.299 1075.41 C 404.549 1072.82 402.557 1071.84 398.858 1071.2 C 388.977 1097.51 420.462 1164.56 431.761 1189.47 C 450.915 1231.88 472.436 1273.18 496.224 1313.17 C 506.939 1330.97 518.919 1347.82 529.846 1365.41 z M 614.285 1090.35 C 608.679 1072.49 603.07 1054.64 596.212 1037.21 C 579.973 995.93 518.673 856.881 482.982 837.633 C 481.942 837.072 480.906 836.593 479.797 836.187 C 479.796 848.117 484.258 858.536 488.847 869.4 C 502.248 901.128 519.151 931.994 535.925 962.047 C 555.315 997.257 575.675 1031.93 596.98 1066.01 C 601.056 1072.48 606.841 1084.68 612.712 1089.36 C 613.196 1089.75 613.761 1090.02 614.285 1090.35 z"/>
</svg>